<svg width="18" height="18" viewBox="0 0 18 18" fill="none" xmlns="http://www.w3.org/2000/svg">
<path d="M6.97656 11.025C6.97656 9.11586 6.97656 8.16128 7.56954 7.56814C8.16254 6.97504 9.1169 6.97504 11.0256 6.97504H11.7005C13.6092 6.97504 14.5636 6.97504 15.1566 7.56814C15.7496 8.16128 15.7496 9.11586 15.7496 11.025V11.7C15.7496 13.6092 15.7496 14.5638 15.1566 15.1569C14.5636 15.75 13.6092 15.75 11.7005 15.75H11.0256C9.1169 15.75 8.16254 15.75 7.56954 15.1569C6.97656 14.5638 6.97656 13.6092 6.97656 11.7V11.025Z" stroke="#969699" stroke-width="1.5" stroke-linecap="round" stroke-linejoin="round"/>
<path d="M12.3726 6.97499C12.371 4.97896 12.3408 3.94506 11.7599 3.23714C11.6478 3.10042 11.5225 2.97507 11.3858 2.86287C10.6391 2.25 9.5299 2.25 7.31135 2.25C5.0928 2.25 3.98353 2.25 3.23692 2.86287C3.10023 2.97506 2.97491 3.10042 2.86273 3.23714C2.25 3.98392 2.25 5.09345 2.25 7.31249C2.25 9.53155 2.25 10.641 2.86273 11.3879C2.9749 11.5246 3.10023 11.6499 3.23692 11.7621C3.94468 12.3431 4.97834 12.3733 6.97392 12.3749" stroke="#969699" stroke-width="1.5" stroke-linecap="round" stroke-linejoin="round"/>
</svg>
